<?xml version="1.0" encoding="UTF-8" standalone="no"?>
<svg xmlns="http://www.w3.org/2000/svg" xmlns:xlink="http://www.w3.org/1999/xlink" viewBox="0 0 500 300" width="500" height="300">
  <g id="bears-container">
    <!-- Stars Background - Adding some stars but no background -->
    <g id="stars-bg">
      <path d="M120,30 L125,40 L135,42 L125,50 L127,60 L120,55 L113,60 L115,50 L105,42 L115,40 Z" fill="#ffffff" opacity="0.7"/>
      <path d="M380,50 L384,58 L393,59 L386,67 L388,75 L380,71 L372,75 L374,67 L367,59 L376,58 Z" fill="#ffffff" opacity="0.5"/>
      <path d="M430,130 L435,140 L445,142 L435,150 L437,160 L430,155 L423,160 L425,150 L415,142 L425,140 Z" fill="#ffffff" opacity="0.6"/>
      <path d="M70,120 L73,128 L82,129 L75,137 L77,145 L70,141 L63,145 L65,137 L58,129 L67,128 Z" fill="#ffffff" opacity="0.4"/>
    </g>
    
    <!-- Grass - just a little hint of it -->
    <path d="M0,280 C50,260 150,290 250,280 C350,270 450,290 500,275 L500,300 L0,300 Z" fill="#a8e4a0" opacity="0.4"/>
    
    <!-- White Bear (Left) -->
    <g id="white-bear">
      <!-- Body -->
      <ellipse cx="170" cy="200" rx="45" ry="50" fill="#ffffff" stroke="#e6e6e6" stroke-width="2"/>
      
      <!-- Belly -->
      <ellipse cx="170" cy="208" rx="30" ry="35" fill="#f9f9f9" stroke="none"/>
      
      <!-- Head -->
      <circle cx="170" cy="130" r="45" fill="#ffffff" stroke="#e6e6e6" stroke-width="2"/>
      
      <!-- Ears -->
      <circle cx="140" cy="100" r="15" fill="#ffffff" stroke="#e6e6e6" stroke-width="2"/>
      <circle cx="200" cy="100" r="15" fill="#ffffff" stroke="#e6e6e6" stroke-width="2"/>
      
      <!-- Eyes -->
      <circle cx="155" cy="125" r="6" fill="#333333"/>
      <circle cx="185" cy="125" r="6" fill="#333333"/>
      
      <!-- Eyebrows -->
      <path d="M145,115 C150,110 155,112 160,115" stroke="#777777" stroke-width="2" fill="none"/>
      <path d="M180,115 C185,112 190,110 195,115" stroke="#777777" stroke-width="2" fill="none"/>
      
      <!-- Happy Mouth -->
      <path d="M160,145 C170,155 180,145 190,145" stroke="#555555" stroke-width="2" fill="none"/>
      
      <!-- Blush -->
      <circle cx="145" cy="140" r="10" fill="#ffb7b7" opacity="0.6"/>
      <circle cx="195" cy="140" r="10" fill="#ffb7b7" opacity="0.6"/>
      
      <!-- Arms -->
      <path d="M130,190 C120,200 120,210 130,220" fill="#ffffff" stroke="#e6e6e6" stroke-width="2"/>
      <path d="M210,190 C220,200 220,210 210,220" fill="#ffffff" stroke="#e6e6e6" stroke-width="2"/>
      
      <!-- Legs -->
      <ellipse cx="155" cy="245" rx="15" ry="12" fill="#ffffff" stroke="#e6e6e6" stroke-width="2"/>
      <ellipse cx="185" cy="245" rx="15" ry="12" fill="#ffffff" stroke="#e6e6e6" stroke-width="2"/>
    </g>
    
    <!-- Brown Bear (Right) -->
    <g id="brown-bear">
      <!-- Body -->
      <ellipse cx="320" cy="200" rx="45" ry="50" fill="#d9a566" stroke="#b78b59" stroke-width="2"/>
      
      <!-- Belly -->
      <ellipse cx="320" cy="208" rx="30" ry="35" fill="#f5d6a8" stroke="none"/>
      
      <!-- Head -->
      <circle cx="320" cy="130" r="45" fill="#d9a566" stroke="#b78b59" stroke-width="2"/>
      
      <!-- Ears -->
      <circle cx="290" cy="100" r="15" fill="#d9a566" stroke="#b78b59" stroke-width="2"/>
      <circle cx="350" cy="100" r="15" fill="#d9a566" stroke="#b78b59" stroke-width="2"/>
      
      <!-- Eyes -->
      <circle cx="305" cy="125" r="6" fill="#333333"/>
      <circle cx="335" cy="125" r="6" fill="#333333"/>
      
      <!-- Neutral/Serious Expression -->
      <path d="M295,115 L315,115" stroke="#555555" stroke-width="2" fill="none"/>
      <path d="M325,115 L345,115" stroke="#555555" stroke-width="2" fill="none"/>
      <path d="M310,145 L330,145" stroke="#555555" stroke-width="2" fill="none"/>
      
      <!-- Arms -->
      <path d="M280,190 C270,200 270,210 280,220" fill="#d9a566" stroke="#b78b59" stroke-width="2"/>
      <path d="M360,190 C370,200 370,210 360,220" fill="#d9a566" stroke="#b78b59" stroke-width="2"/>
      
      <!-- Legs -->
      <ellipse cx="305" cy="245" rx="15" ry="12" fill="#d9a566" stroke="#b78b59" stroke-width="2"/>
      <ellipse cx="335" cy="245" rx="15" ry="12" fill="#d9a566" stroke="#b78b59" stroke-width="2"/>
    </g>
    
    <!-- Heart between bears -->
    <g id="heart">
      <path d="M250,175 L235,160 Q220,145 235,135 Q243,127 250,135 Q257,127 265,135 Q280,145 265,160 Z" fill="#ff5252" stroke="#d64545" stroke-width="1"/>
    </g>
  </g>
</svg>