<?xml version="1.0" encoding="UTF-8"?>
<svg xmlns="http://www.w3.org/2000/svg" viewBox="0 0 500 400" width="500" height="400">
  <!-- Left Bear (Boy - Brown) -->
  <g id="boy-bear">
    <!-- Body -->
    <ellipse cx="170" cy="200" rx="70" ry="80" fill="#C49A6A">
      <animate attributeName="transform" attributeType="XML" type="translate" 
               values="0,0; 5,0; 0,0" dur="3s" repeatCount="indefinite"/>
    </ellipse>
    <!-- Head -->
    <circle cx="170" cy="120" r="50" fill="#C49A6A">
      <animate attributeName="transform" attributeType="XML" type="translate" 
               values="0,0; 5,0; 0,0" dur="3s" repeatCount="indefinite"/>
    </circle>
    <!-- Ears -->
    <circle cx="130" cy="85" r="20" fill="#A37C50">
      <animate attributeName="transform" attributeType="XML" type="translate" 
               values="0,0; 5,0; 0,0" dur="3s" repeatCount="indefinite"/>
    </circle>
    <circle cx="210" cy="85" r="20" fill="#A37C50">
      <animate attributeName="transform" attributeType="XML" type="translate" 
               values="0,0; 5,0; 0,0" dur="3s" repeatCount="indefinite"/>
    </circle>
    <!-- Eyes -->
    <circle cx="155" cy="110" r="8" fill="#43302E">
      <animate attributeName="transform" attributeType="XML" type="translate" 
               values="0,0; 5,0; 0,0" dur="3s" repeatCount="indefinite"/>
    </circle>
    <circle cx="190" cy="110" r="8" fill="#43302E">
      <animate attributeName="transform" attributeType="XML" type="translate" 
               values="0,0; 5,0; 0,0" dur="3s" repeatCount="indefinite"/>
    </circle>
    <!-- Eye highlights -->
    <circle cx="158" cy="107" r="3" fill="white">
      <animate attributeName="transform" attributeType="XML" type="translate" 
               values="0,0; 5,0; 0,0" dur="3s" repeatCount="indefinite"/>
    </circle>
    <circle cx="193" cy="107" r="3" fill="white">
      <animate attributeName="transform" attributeType="XML" type="translate" 
               values="0,0; 5,0; 0,0" dur="3s" repeatCount="indefinite"/>
    </circle>
    <!-- Nose -->
    <ellipse cx="170" cy="128" rx="15" ry="10" fill="#8B5A50">
      <animate attributeName="transform" attributeType="XML" type="translate" 
               values="0,0; 5,0; 0,0" dur="3s" repeatCount="indefinite"/>
    </ellipse>
    <!-- Smile -->
    <path d="M160,145 Q170,155 180,145" stroke="#43302E" stroke-width="3" fill="none">
      <animate attributeName="transform" attributeType="XML" type="translate" 
               values="0,0; 5,0; 0,0" dur="3s" repeatCount="indefinite"/>
    </path>
    <!-- Blush -->
    <circle cx="140" cy="135" r="10" fill="#E3A5A5" opacity="0.6">
      <animate attributeName="transform" attributeType="XML" type="translate" 
               values="0,0; 5,0; 0,0" dur="3s" repeatCount="indefinite"/>
    </circle>
    <circle cx="200" cy="135" r="10" fill="#E3A5A5" opacity="0.6">
      <animate attributeName="transform" attributeType="XML" type="translate" 
               values="0,0; 5,0; 0,0" dur="3s" repeatCount="indefinite"/>
    </circle>
    
    <!-- Arms (hugging) -->
    <ellipse cx="135" cy="190" rx="15" ry="25" fill="#C49A6A" transform="rotate(20,135,190)">
      <animate attributeName="transform" attributeType="XML" type="translate" 
               values="0,0; 5,0; 0,0" dur="3s" repeatCount="indefinite"/>
    </ellipse>
    <ellipse cx="225" cy="170" rx="15" ry="60" fill="#C49A6A" transform="rotate(20,225,170)">
      <animate attributeName="transform" attributeType="XML" type="translate" 
               values="0,0; 5,0; 0,0" dur="3s" repeatCount="indefinite"/>
    </ellipse>
    
    <!-- Legs -->
    <ellipse cx="140" cy="270" rx="25" ry="15" fill="#C49A6A" transform="rotate(20,140,270)">
      <animate attributeName="transform" attributeType="XML" type="translate" 
               values="0,0; 5,0; 0,0" dur="3s" repeatCount="indefinite"/>
    </ellipse>
    <ellipse cx="200" cy="270" rx="25" ry="15" fill="#C49A6A" transform="rotate(-20,200,270)">
      <animate attributeName="transform" attributeType="XML" type="translate" 
               values="0,0; 5,0; 0,0" dur="3s" repeatCount="indefinite"/>
    </ellipse>
  </g>
  
  <!-- Right Bear (Girl - White) -->
  <g id="girl-bear">
    <!-- Body -->
    <ellipse cx="330" cy="200" rx="70" ry="80" fill="#DFB995">
      <animate attributeName="transform" attributeType="XML" type="translate" 
               values="0,0; -5,0; 0,0" dur="3s" repeatCount="indefinite"/>
    </ellipse>
    <!-- Head -->
    <circle cx="330" cy="120" r="50" fill="#DFB995">
      <animate attributeName="transform" attributeType="XML" type="translate" 
               values="0,0; -5,0; 0,0" dur="3s" repeatCount="indefinite"/>
    </circle>
    <!-- Ears -->
    <circle cx="290" cy="85" r="20" fill="#C49A6A">
      <animate attributeName="transform" attributeType="XML" type="translate" 
               values="0,0; -5,0; 0,0" dur="3s" repeatCount="indefinite"/>
    </circle>
    <circle cx="370" cy="85" r="20" fill="#C49A6A">
      <animate attributeName="transform" attributeType="XML" type="translate" 
               values="0,0; -5,0; 0,0" dur="3s" repeatCount="indefinite"/>
    </circle>
    <!-- Eyes -->
    <circle cx="310" cy="110" r="8" fill="#43302E">
      <animate attributeName="transform" attributeType="XML" type="translate" 
               values="0,0; -5,0; 0,0" dur="3s" repeatCount="indefinite"/>
    </circle>
    <circle cx="345" cy="110" r="8" fill="#43302E">
      <animate attributeName="transform" attributeType="XML" type="translate" 
               values="0,0; -5,0; 0,0" dur="3s" repeatCount="indefinite"/>
    </circle>
    <!-- Eye highlights -->
    <circle cx="313" cy="107" r="3" fill="white">
      <animate attributeName="transform" attributeType="XML" type="translate" 
               values="0,0; -5,0; 0,0" dur="3s" repeatCount="indefinite"/>
    </circle>
    <circle cx="348" cy="107" r="3" fill="white">
      <animate attributeName="transform" attributeType="XML" type="translate" 
               values="0,0; -5,0; 0,0" dur="3s" repeatCount="indefinite"/>
    </circle>
    <!-- Nose -->
    <ellipse cx="330" cy="128" rx="15" ry="10" fill="#8B5A50">
      <animate attributeName="transform" attributeType="XML" type="translate" 
               values="0,0; -5,0; 0,0" dur="3s" repeatCount="indefinite"/>
    </ellipse>
    <!-- Smile -->
    <path d="M320,145 Q330,155 340,145" stroke="#43302E" stroke-width="3" fill="none">
      <animate attributeName="transform" attributeType="XML" type="translate" 
               values="0,0; -5,0; 0,0" dur="3s" repeatCount="indefinite"/>
    </path>
    <!-- Blush -->
    <circle cx="300" cy="135" r="10" fill="#E3A5A5" opacity="0.6">
      <animate attributeName="transform" attributeType="XML" type="translate" 
               values="0,0; -5,0; 0,0" dur="3s" repeatCount="indefinite"/>
    </circle>
    <circle cx="360" cy="135" r="10" fill="#E3A5A5" opacity="0.6">
      <animate attributeName="transform" attributeType="XML" type="translate" 
               values="0,0; -5,0; 0,0" dur="3s" repeatCount="indefinite"/>
    </circle>
    
    <!-- Hair bow -->
    <path d="M330,70 
            Q350,50 360,70
            Q350,90 330,70" 
          fill="#FF6B6B">
      <animate attributeName="transform" attributeType="XML" type="translate" 
               values="0,0; -5,0; 0,0" dur="3s" repeatCount="indefinite"/>
    </path>
    <path d="M330,70 
            Q310,50 300,70
            Q310,90 330,70" 
          fill="#FF6B6B">
      <animate attributeName="transform" attributeType="XML" type="translate" 
               values="0,0; -5,0; 0,0" dur="3s" repeatCount="indefinite"/>
    </path>
    <circle cx="330" cy="70" r="8" fill="#FF6B6B">
      <animate attributeName="transform" attributeType="XML" type="translate" 
               values="0,0; -5,0; 0,0" dur="3s" repeatCount="indefinite"/>
    </circle>
    
    <!-- Arms (hugging) -->
    <ellipse cx="365" cy="190" rx="15" ry="25" fill="#DFB995" transform="rotate(-20,365,190)">
      <animate attributeName="transform" attributeType="XML" type="translate" 
               values="0,0; -5,0; 0,0" dur="3s" repeatCount="indefinite"/>
    </ellipse>
    <ellipse cx="275" cy="170" rx="15" ry="60" fill="#DFB995" transform="rotate(-20,275,170)">
      <animate attributeName="transform" attributeType="XML" type="translate" 
               values="0,0; -5,0; 0,0" dur="3s" repeatCount="indefinite"/>
    </ellipse>
    
    <!-- Legs -->
    <ellipse cx="300" cy="270" rx="25" ry="15" fill="#DFB995" transform="rotate(20,300,270)">
      <animate attributeName="transform" attributeType="XML" type="translate" 
               values="0,0; -5,0; 0,0" dur="3s" repeatCount="indefinite"/>
    </ellipse>
    <ellipse cx="360" cy="270" rx="25" ry="15" fill="#DFB995" transform="rotate(-20,360,270)">
      <animate attributeName="transform" attributeType="XML" type="translate" 
               values="0,0; -5,0; 0,0" dur="3s" repeatCount="indefinite"/>
    </ellipse>
  </g>
  
  <!-- Hearts floating around -->
  <g id="hearts">
    <path d="M250,50 
           C260,35 275,35 275,50
           C275,65 250,80 250,80
           C250,80 225,65 225,50
           C225,35 240,35 250,50" 
        fill="#FF6B6B" opacity="0.8">
      <animate attributeName="opacity" values="0.6;1;0.6" dur="2s" repeatCount="indefinite" />
      <animate attributeName="transform" attributeType="XML" type="translate" 
               values="0,0; 0,-10; 0,0" dur="3s" repeatCount="indefinite"/>
    </path>
    
    <path d="M180,100 
           C190,85 205,85 205,100
           C205,115 180,130 180,130
           C180,130 155,115 155,100
           C155,85 170,85 180,100" 
        fill="#FF6B6B" opacity="0.7">
      <animate attributeName="opacity" values="0.5;0.9;0.5" dur="2.5s" repeatCount="indefinite" />
      <animate attributeName="transform" attributeType="XML" type="translate" 
               values="0,0; 0,-8; 0,0" dur="2.8s" repeatCount="indefinite"/>
    </path>
    
    <path d="M320,100 
           C330,85 345,85 345,100
           C345,115 320,130 320,130
           C320,130 295,115 295,100
           C295,85 310,85 320,100" 
        fill="#FF6B6B" opacity="0.7">
      <animate attributeName="opacity" values="0.5;0.9;0.5" dur="2.7s" repeatCount="indefinite" />
      <animate attributeName="transform" attributeType="XML" type="translate" 
               values="0,0; 0,-12; 0,0" dur="3.2s" repeatCount="indefinite"/>
    </path>
    
    <path d="M250,140 
           C260,125 275,125 275,140
           C275,155 250,170 250,170
           C250,170 225,155 225,140
           C225,125 240,125 250,140" 
        fill="#FF6B6B" opacity="0.9">
      <animate attributeName="opacity" values="0.7;1;0.7" dur="1.8s" repeatCount="indefinite" />
      <animate attributeName="transform" attributeType="XML" type="scale" 
               values="1;1.1;1" dur="1.5s" repeatCount="indefinite"/>
    </path>
    
    <path d="M150,180 
           C160,165 175,165 175,180
           C175,195 150,210 150,210
           C150,210 125,195 125,180
           C125,165 140,165 150,180" 
        fill="#FF6B6B" opacity="0.6">
      <animate attributeName="opacity" values="0.4;0.8;0.4" dur="3s" repeatCount="indefinite" />
      <animate attributeName="transform" attributeType="XML" type="translate" 
               values="0,0; 0,-5; 0,0" dur="2.5s" repeatCount="indefinite"/>
    </path>
    
    <path d="M350,180 
           C360,165 375,165 375,180
           C375,195 350,210 350,210
           C350,210 325,195 325,180
           C325,165 340,165 350,180" 
        fill="#FF6B6B" opacity="0.6">
      <animate attributeName="opacity" values="0.4;0.8;0.4" dur="2.3s" repeatCount="indefinite" />
      <animate attributeName="transform" attributeType="XML" type="translate" 
               values="0,0; 0,-7; 0,0" dur="2.9s" repeatCount="indefinite"/>
    </path>
    
    <path d="M250,250 
           C260,235 275,235 275,250
           C275,265 250,280 250,280
           C250,280 225,265 225,250
           C225,235 240,235 250,250" 
        fill="#FF6B6B" opacity="0.5">
      <animate attributeName="opacity" values="0.3;0.7;0.3" dur="4s" repeatCount="indefinite" />
      <animate attributeName="transform" attributeType="XML" type="translate" 
               values="0,0; 0,-8; 0,0" dur="3.5s" repeatCount="indefinite"/>
    </path>
    
    <path d="M400,120 
           C410,105 425,105 425,120
           C425,135 400,150 400,150
           C400,150 375,135 375,120
           C375,105 390,105 400,120" 
        fill="#FF6B6B" opacity="0.4">
      <animate attributeName="opacity" values="0.2;0.6;0.2" dur="3.8s" repeatCount="indefinite" />
      <animate attributeName="transform" attributeType="XML" type="translate" 
               values="0,0; 0,-6; 0,0" dur="3.3s" repeatCount="indefinite"/>
    </path>
    
    <path d="M100,120 
           C110,105 125,105 125,120
           C125,135 100,150 100,150
           C100,150 75,135 75,120
           C75,105 90,105 100,120" 
        fill="#FF6B6B" opacity="0.4">
      <animate attributeName="opacity" values="0.2;0.6;0.2" dur="3.3s" repeatCount="indefinite" />
      <animate attributeName="transform" attributeType="XML" type="translate" 
               values="0,0; 0,-4; 0,0" dur="3.7s" repeatCount="indefinite"/>
    </path>
  </g>
</svg>