<?xml version="1.0" encoding="UTF-8" standalone="no"?>
<svg xmlns="http://www.w3.org/2000/svg" xmlns:xlink="http://www.w3.org/1999/xlink" viewBox="0 0 500 300" width="500" height="300">
  <g id="bears-container">
    <!-- Hearts Background -->
    <g id="hearts-bg">
      <path d="M100,60 L85,45 Q70,30 85,20 Q95,10 100,20 Q105,10 115,20 Q130,30 115,45 Z" fill="#f77" opacity="0.9"/>
      <path d="M380,40 L370,30 Q360,20 370,13 Q377,5 380,13 Q383,5 390,13 Q400,20 390,30 Z" fill="#f77" opacity="0.7"/>
      <path d="M450,130 L435,115 Q420,100 435,90 Q445,80 450,90 Q455,80 465,90 Q480,100 465,115 Z" fill="#f77" opacity="0.8"/>
    </g>
    
    <!-- Brown Bear (Left) -->
    <g id="brown-bear">
      <!-- Body -->
      <ellipse cx="190" cy="170" rx="60" ry="55" fill="#d9a566" stroke="#8b5a2b" stroke-width="2"/>
      
      <!-- Belly -->
      <ellipse cx="190" cy="178" rx="40" ry="35" fill="#f5d6a8" stroke="none"/>
      
      <!-- Head -->
      <circle cx="170" cy="120" r="50" fill="#d9a566" stroke="#8b5a2b" stroke-width="2"/>
      
      <!-- Ears -->
      <circle cx="130" cy="90" r="15" fill="#d9a566" stroke="#8b5a2b" stroke-width="2"/>
      <circle cx="200" cy="85" r="15" fill="#d9a566" stroke="#8b5a2b" stroke-width="2"/>
      <circle cx="130" cy="90" r="7" fill="#f5d6a8" stroke="none"/>
      <circle cx="200" cy="85" r="7" fill="#f5d6a8" stroke="none"/>
      
      <!-- Eyes -->
      <ellipse cx="150" cy="110" rx="5" ry="7" fill="#4c2f27"/>
      <ellipse cx="180" cy="110" rx="5" ry="7" fill="#4c2f27"/>
      
      <!-- Muzzle -->
      <ellipse cx="165" cy="130" rx="18" ry="15" fill="#f5d6a8" stroke="none"/>
      <ellipse cx="165" cy="138" rx="9" ry="7" fill="#8b5a2b" stroke="none"/>
      
      <!-- Blush -->
      <circle cx="140" cy="130" r="10" fill="#ff9999" opacity="0.6"/>
      
      <!-- Arms -->
      <path d="M150,170 C140,180 150,195 170,195" fill="#d9a566" stroke="#8b5a2b" stroke-width="2"/>
      <path d="M230,180 C240,190 250,195 260,190" fill="#d9a566" stroke="#8b5a2b" stroke-width="2"/>
      
      <!-- Legs -->
      <ellipse cx="175" cy="220" rx="15" ry="10" fill="#d9a566" stroke="#8b5a2b" stroke-width="2"/>
      <ellipse cx="210" cy="220" rx="15" ry="10" fill="#d9a566" stroke="#8b5a2b" stroke-width="2"/>
    </g>
    
    <!-- Pink Bear (Right) -->
    <g id="pink-bear">
      <!-- Body -->
      <ellipse cx="310" cy="170" rx="60" ry="55" fill="#ffccd0" stroke="#e6a5a8" stroke-width="2"/>
      
      <!-- Belly -->
      <ellipse cx="310" cy="178" rx="40" ry="35" fill="#fff0f2" stroke="none"/>
      
      <!-- Head -->
      <circle cx="330" cy="120" r="50" fill="#ffccd0" stroke="#e6a5a8" stroke-width="2"/>
      
      <!-- Ears -->
      <circle cx="300" cy="85" r="15" fill="#ffccd0" stroke="#e6a5a8" stroke-width="2"/>
      <circle cx="370" cy="90" r="15" fill="#ffccd0" stroke="#e6a5a8" stroke-width="2"/>
      <circle cx="300" cy="85" r="7" fill="#fff0f2" stroke="none"/>
      <circle cx="370" cy="90" r="7" fill="#fff0f2" stroke="none"/>
      
      <!-- Bow -->
      <path d="M370,70 C380,60 390,70 380,80 C390,90 380,100 370,90 C360,100 350,90 360,80 C350,70 360,60 370,70 Z" fill="#ff7f7f" stroke="#e6a5a8" stroke-width="1"/>
      <circle cx="370" cy="80" r="5" fill="#ff5555"/>
      
      <!-- Eyes -->
      <ellipse cx="320" cy="110" rx="5" ry="7" fill="#4c2f27"/>
      <ellipse cx="350" cy="110" rx="5" ry="7" fill="#4c2f27"/>
      
      <!-- Muzzle -->
      <ellipse cx="335" cy="130" rx="18" ry="15" fill="#fff0f2" stroke="none"/>
      <ellipse cx="335" cy="138" rx="9" ry="7" fill="#e6a5a8" stroke="none"/>
      
      <!-- Blush -->
      <circle cx="360" cy="130" r="10" fill="#ff9999" opacity="0.6"/>
      
      <!-- Arms -->
      <path d="M270,190 C260,195 250,190 240,180" fill="#ffccd0" stroke="#e6a5a8" stroke-width="2"/>
      <path d="M350,170 C360,180 350,195 330,195" fill="#ffccd0" stroke="#e6a5a8" stroke-width="2"/>
      
      <!-- Legs -->
      <ellipse cx="290" cy="220" rx="15" ry="10" fill="#ffccd0" stroke="#e6a5a8" stroke-width="2"/>
      <ellipse cx="325" cy="220" rx="15" ry="10" fill="#ffccd0" stroke="#e6a5a8" stroke-width="2"/>
    </g>
  </g>
  
  <!-- Animation -->
  <style>
    @keyframes float {
      0% { transform: translateY(0); }
      50% { transform: translateY(-7px); }
      100% { transform: translateY(0); }
    }
    
    @keyframes heart-pulse {
      0% { transform: scale(1); opacity: 0.7; }
      50% { transform: scale(1.15); opacity: 0.9; }
      100% { transform: scale(1); opacity: 0.7; }
    }
    
    @keyframes blush-pulse {
      0% { opacity: 0.4; }
      50% { opacity: 0.7; }
      100% { opacity: 0.4; }
    }
    
    #bears-container {
      animation: float 4s ease-in-out infinite;
    }
    
    #hearts-bg path:nth-child(1) {
      animation: heart-pulse 3s ease-in-out infinite;
    }
    
    #hearts-bg path:nth-child(2) {
      animation: heart-pulse 4s ease-in-out infinite;
      animation-delay: 0.5s;
    }
    
    #hearts-bg path:nth-child(3) {
      animation: heart-pulse 3.5s ease-in-out infinite;
      animation-delay: 1s;
    }
    
    #brown-bear circle:nth-child(10),
    #pink-bear circle:nth-child(12) {
      animation: blush-pulse 3s ease-in-out infinite;
    }
    
  </style>
</svg>