<?xml version="1.0" encoding="UTF-8" standalone="no"?>
<svg xmlns="http://www.w3.org/2000/svg" xmlns:xlink="http://www.w3.org/1999/xlink" viewBox="0 0 400 400" width="400" height="400">
  <!-- Bear Body -->
  <g id="bear">
    <circle cx="200" cy="200" r="90" fill="white" stroke="black" stroke-width="3"/>
    
    <!-- Bear Face -->
    <circle cx="200" cy="200" r="70" fill="white" stroke="none"/>
    
    <!-- Bear Eyes -->
    <g id="eyes">
      <g id="left-eye">
        <ellipse cx="175" cy="185" rx="8" ry="12" fill="black"/>
        <circle cx="173" cy="182" r="3" fill="white"/>
      </g>
      <g id="right-eye">
        <ellipse cx="225" cy="185" rx="8" ry="12" fill="black"/>
        <circle cx="223" cy="182" r="3" fill="white"/>
      </g>
    </g>
    
    <!-- Bear Blushing Cheeks -->
    <g id="blush" opacity="0.7">
      <circle cx="160" cy="210" r="15" fill="#ff9999"/>
      <circle cx="240" cy="210" r="15" fill="#ff9999"/>
    </g>
    
    <!-- Bear Ears -->
    <g id="ears">
      <circle cx="150" cy="130" r="20" fill="white" stroke="black" stroke-width="3"/>
      <circle cx="250" cy="130" r="20" fill="white" stroke="black" stroke-width="3"/>
      <circle cx="150" cy="130" r="10" fill="#ffcccc" stroke="none"/>
      <circle cx="250" cy="130" r="10" fill="#ffcccc" stroke="none"/>
    </g>
    
    <!-- Bear Mouth -->
    <g id="mouth">
      <path d="M190,220 Q200,230 210,220" stroke="black" stroke-width="3" fill="none"/>
    </g>
    
    <!-- Bear Arms -->
    <g id="arms">
      <path d="M140,210 Q120,220 140,240" stroke="black" stroke-width="3" fill="white"/>
      <path d="M260,210 Q280,220 260,240" stroke="black" stroke-width="3" fill="white"/>
    </g>
    
    <!-- Heart -->
    <g id="heart">
      <path d="M200,260 L180,240 Q160,220 180,210 Q190,200 200,210 Q210,200 220,210 Q240,220 220,240 Z" fill="#ff6b6b" stroke="black" stroke-width="2"/>
    </g>
  </g>
  
  <!-- Animation -->
  <style>
    @keyframes float {
      0% { transform: translateY(0px) rotate(0deg); }
      25% { transform: translateY(-5px) rotate(-2deg); }
      50% { transform: translateY(0px) rotate(0deg); }
      75% { transform: translateY(5px) rotate(2deg); }
      100% { transform: translateY(0px) rotate(0deg); }
    }

    @keyframes blush-pulse {
      0% { opacity: 0.5; }
      50% { opacity: 0.8; }
      100% { opacity: 0.5; }
    }
    
    @keyframes heart-beat {
      0% { transform: scale(1); }
      25% { transform: scale(1.1); }
      50% { transform: scale(1); }
      75% { transform: scale(1.1); }
      100% { transform: scale(1); }
    }
    
    #bear {
      animation: float 3s ease-in-out infinite;
    }
    
    #blush {
      animation: blush-pulse 2s ease-in-out infinite;
    }
    
    #heart {
      animation: heart-beat 1s ease-in-out infinite;
      transform-origin: center;
    }
  </style>
</svg>