<?xml version="1.0" encoding="UTF-8" standalone="no"?>
<svg xmlns="http://www.w3.org/2000/svg" xmlns:xlink="http://www.w3.org/1999/xlink" viewBox="0 0 400 400" width="400" height="400">
  <g id="bear">
    <!-- Main Bear Body -->
    <ellipse cx="200" cy="200" rx="60" ry="70" fill="white" stroke="black" stroke-width="2.5"/>
    
    <!-- Bear Head -->
    <circle cx="200" cy="180" r="55" fill="white" stroke="black" stroke-width="2.5"/>
    
    <!-- Bear Ears -->
    <g id="ears">
      <circle cx="160" cy="140" r="15" fill="white" stroke="black" stroke-width="2.5"/>
      <circle cx="240" cy="140" r="15" fill="white" stroke="black" stroke-width="2.5"/>
    </g>
    
    <!-- Bear Eyes -->
    <g id="eyes">
      <path d="M185,170 Q175,165 185,160" stroke="black" stroke-width="2" fill="none"/>
      <path d="M215,170 Q225,165 215,160" stroke="black" stroke-width="2" fill="none"/>
    </g>
    
    <!-- Bear Blushing Cheeks -->
    <g id="blush">
      <circle cx="175" cy="185" r="12" fill="#ffb7b7" opacity="0.7"/>
      <circle cx="225" cy="185" r="12" fill="#ffb7b7" opacity="0.7"/>
    </g>
    
    <!-- Bear Arms -->
    <g id="arms">
      <!-- Left Arm -->
      <path d="M160,210 C140,215 135,225 145,240" fill="white" stroke="black" stroke-width="2.5"/>
      <!-- Right Arm holding heart -->
      <path d="M240,210 C260,215 265,225 255,240" fill="white" stroke="black" stroke-width="2.5"/>
    </g>
    
    <!-- Bear Legs -->
    <g id="legs">
      <ellipse cx="180" cy="265" rx="15" ry="10" fill="white" stroke="black" stroke-width="2.5"/>
      <ellipse cx="220" cy="265" rx="15" ry="10" fill="white" stroke="black" stroke-width="2.5"/>
    </g>
    
    <!-- Heart that bear is holding -->
    <g id="heart">
      <path d="M200,235 L180,215 Q160,195 180,185 Q190,175 200,190 Q210,175 220,185 Q240,195 220,215 Z" fill="#ff5252" stroke="black" stroke-width="1.5"/>
    </g>
  </g>
  
  <!-- Animation -->
  <style>
    @keyframes float {
      0% { transform: translateY(0px); }
      50% { transform: translateY(-5px); }
      100% { transform: translateY(0px); }
    }

    @keyframes heart-beat {
      0% { transform: scale(1); }
      50% { transform: scale(1.1); }
      100% { transform: scale(1); }
    }
    
    #bear {
      animation: float 3s ease-in-out infinite;
    }
    
    #heart {
      animation: heart-beat 1.5s ease-in-out infinite;
      transform-origin: center;
    }
  </style>
</svg>