<?xml version="1.0" encoding="UTF-8" standalone="no"?>
<svg xmlns="http://www.w3.org/2000/svg" xmlns:xlink="http://www.w3.org/1999/xlink" viewBox="0 0 400 400" width="400" height="400">
  <!-- Bear Body -->
  <g id="bear">
    <!-- Main Body - White Bear -->
    <ellipse cx="200" cy="220" rx="70" ry="75" fill="white" stroke="black" stroke-width="3"/>
    
    <!-- Bear Head -->
    <circle cx="200" cy="170" r="65" fill="white" stroke="black" stroke-width="3"/>
    
    <!-- Bear Ears -->
    <g id="ears">
      <circle cx="150" cy="130" r="20" fill="white" stroke="black" stroke-width="3"/>
      <circle cx="250" cy="130" r="20" fill="white" stroke="black" stroke-width="3"/>
      <circle cx="150" cy="130" r="10" fill="#ffcccc" stroke="none"/>
      <circle cx="250" cy="130" r="10" fill="#ffcccc" stroke="none"/>
    </g>
    
    <!-- Bear Eyes - Squinting/Happy -->
    <g id="eyes">
      <path d="M175,165 Q185,155 195,165" stroke="black" stroke-width="3" fill="none"/>
      <path d="M225,165 Q215,155 205,165" stroke="black" stroke-width="3" fill="none"/>
    </g>
    
    <!-- Bear Blushing Cheeks -->
    <g id="blush" opacity="0.7">
      <circle cx="170" cy="185" r="15" fill="#ff9999"/>
      <circle cx="230" cy="185" r="15" fill="#ff9999"/>
    </g>
    
    <!-- Bear Arms -->
    <g id="arms">
      <!-- Left Arm -->
      <path d="M145,220 C130,230 125,240 140,260" fill="white" stroke="black" stroke-width="3"/>
      <!-- Right Arm - Holding Heart -->
      <path d="M255,220 C270,230 275,240 260,260" fill="white" stroke="black" stroke-width="3"/>
    </g>
    
    <!-- Bear Legs -->
    <g id="legs">
      <ellipse cx="175" cy="290" rx="20" ry="15" fill="white" stroke="black" stroke-width="3"/>
      <ellipse cx="225" cy="290" rx="20" ry="15" fill="white" stroke="black" stroke-width="3"/>
    </g>
    
    <!-- Heart that bear is holding -->
    <g id="heart">
      <path d="M200,260 L170,230 Q140,200 170,190 Q185,180 200,200 Q215,180 230,190 Q260,200 230,230 Z" fill="#ff5252" stroke="black" stroke-width="2"/>
    </g>
  </g>
  
  <!-- Animation -->
  <style>
    @keyframes float {
      0% { transform: translateY(0px) rotate(0deg); }
      25% { transform: translateY(-5px) rotate(-1deg); }
      50% { transform: translateY(0px) rotate(0deg); }
      75% { transform: translateY(5px) rotate(1deg); }
      100% { transform: translateY(0px) rotate(0deg); }
    }

    @keyframes blush-pulse {
      0% { opacity: 0.5; }
      50% { opacity: 0.8; }
      100% { opacity: 0.5; }
    }
    
    @keyframes heart-spin {
      0% { transform: scale(1) rotate(0deg); }
      25% { transform: scale(1.1) rotate(5deg); }
      50% { transform: scale(1) rotate(0deg); }
      75% { transform: scale(1.1) rotate(-5deg); }
      100% { transform: scale(1) rotate(0deg); }
    }
    
    #bear {
      animation: float 4s ease-in-out infinite;
    }
    
    #blush {
      animation: blush-pulse 3s ease-in-out infinite;
    }
    
    #heart {
      animation: heart-spin 2s ease-in-out infinite;
      transform-origin: center;
    }
  </style>
</svg>