<?xml version="1.0" encoding="UTF-8" standalone="no"?>
<svg xmlns="http://www.w3.org/2000/svg" xmlns:xlink="http://www.w3.org/1999/xlink" viewBox="0 0 500 400" width="500" height="400">
  <!-- Two Bears Container -->
  <g id="bears-container">
    <!-- Boy Bear -->
    <g id="boy-bear" transform="translate(180, 200)">
      <ellipse cx="0" cy="0" rx="60" ry="70" fill="white" stroke="black" stroke-width="2.5"/>
      
      <!-- Bear Head -->
      <circle cx="0" cy="-20" r="55" fill="white" stroke="black" stroke-width="2.5"/>
      
      <!-- Bear Ears -->
      <g id="boy-ears">
        <circle cx="-40" cy="-60" r="15" fill="white" stroke="black" stroke-width="2.5"/>
        <circle cx="40" cy="-60" r="15" fill="white" stroke="black" stroke-width="2.5"/>
      </g>
      
      <!-- Bear Eyes -->
      <g id="boy-eyes">
        <path d="M-15,-30 Q-25,-35 -15,-40" stroke="black" stroke-width="2" fill="none"/>
        <path d="M15,-30 Q25,-35 15,-40" stroke="black" stroke-width="2" fill="none"/>
      </g>
      
      <!-- Bear Blushing Cheeks -->
      <g id="boy-blush">
        <circle cx="-25" cy="-15" r="12" fill="#ffb7b7" opacity="0.7"/>
        <circle cx="25" cy="-15" r="12" fill="#ffb7b7" opacity="0.7"/>
      </g>
      
      <!-- Bear Arms -->
      <path d="M-30,10 Q-45,30 -30,50" fill="white" stroke="black" stroke-width="2.5"/>
      
      <!-- Bear Legs -->
      <g id="boy-legs">
        <ellipse cx="-20" cy="65" rx="15" ry="10" fill="white" stroke="black" stroke-width="2.5"/>
        <ellipse cx="20" cy="65" rx="15" ry="10" fill="white" stroke="black" stroke-width="2.5"/>
      </g>
      
      <!-- Heart that bear is holding -->
      <g id="heart" transform="translate(50, 30)">
        <path d="M0,20 L-20,0 Q-40,-20 -20,-30 Q-10,-40 0,-30 Q10,-40 20,-30 Q40,-20 20,0 Z" fill="#ff5252" stroke="black" stroke-width="1.5"/>
      </g>
    </g>
    
    <!-- Girl Bear -->
    <g id="girl-bear" transform="translate(320, 200)">
      <ellipse cx="0" cy="0" rx="55" ry="65" fill="white" stroke="black" stroke-width="2.5"/>
      
      <!-- Bear Head -->
      <circle cx="0" cy="-20" r="50" fill="white" stroke="black" stroke-width="2.5"/>
      
      <!-- Bear Ears -->
      <g id="girl-ears">
        <circle cx="-35" cy="-60" r="14" fill="white" stroke="black" stroke-width="2.5"/>
        <circle cx="35" cy="-60" r="14" fill="white" stroke="black" stroke-width="2.5"/>
      </g>
      
      <!-- Bear Eyes -->
      <g id="girl-eyes">
        <path d="M-15,-30 Q-25,-35 -15,-40" stroke="black" stroke-width="2" fill="none"/>
        <path d="M15,-30 Q25,-35 15,-40" stroke="black" stroke-width="2" fill="none"/>
      </g>
      
      <!-- Bear Blushing Cheeks -->
      <g id="girl-blush">
        <circle cx="-25" cy="-15" r="10" fill="#ffb7b7" opacity="0.7"/>
        <circle cx="25" cy="-15" r="10" fill="#ffb7b7" opacity="0.7"/>
      </g>
      
      <!-- Bear Arms -->
      <g id="girl-arm">
        <path d="M-30,10 Q-45,30 -30,50" fill="white" stroke="black" stroke-width="2.5"/>
        <path d="M30,10 Q45,30 30,50" fill="white" stroke="black" stroke-width="2.5"/>
      </g>
      
      <!-- Bear Legs -->
      <g id="girl-legs">
        <ellipse cx="-20" cy="60" rx="14" ry="9" fill="white" stroke="black" stroke-width="2.5"/>
        <ellipse cx="20" cy="60" rx="14" ry="9" fill="white" stroke="black" stroke-width="2.5"/>
      </g>
    </g>
    
    <!-- Floating Hearts -->
    <g id="floating-hearts">
      <g class="floating-heart" transform="translate(250, 100)">
        <path d="M0,15 L-15,0 Q-30,-15 -15,-25 Q-7,-33 0,-25 Q7,-33 15,-25 Q30,-15 15,0 Z" fill="#ff5252" opacity="0.8"/>
      </g>
      <g class="floating-heart" transform="translate(210, 80)">
        <path d="M0,10 L-10,0 Q-20,-10 -10,-15 Q-5,-20 0,-15 Q5,-20 10,-15 Q20,-10 10,0 Z" fill="#ff5252" opacity="0.6"/>
      </g>
      <g class="floating-heart" transform="translate(290, 120)">
        <path d="M0,12 L-12,0 Q-24,-12 -12,-18 Q-6,-24 0,-18 Q6,-24 12,-18 Q24,-12 12,0 Z" fill="#ff5252" opacity="0.7"/>
      </g>
    </g>
  </g>
  
  <!-- Animation -->
  <style>
    @keyframes boyFloat {
      0% { transform: translate(180px, 200px); }
      50% { transform: translate(175px, 195px); }
      100% { transform: translate(180px, 200px); }
    }

    @keyframes girlFloat {
      0% { transform: translate(320px, 200px); }
      50% { transform: translate(325px, 195px); }
      100% { transform: translate(320px, 200px); }
    }
    
    @keyframes blush-pulse {
      0% { opacity: 0.5; }
      50% { opacity: 0.8; }
      100% { opacity: 0.5; }
    }
    
    @keyframes heart-beat {
      0% { transform: translate(50px, 30px) scale(1); }
      50% { transform: translate(50px, 30px) scale(1.15); }
      100% { transform: translate(50px, 30px) scale(1); }
    }
    
    @keyframes float-heart-1 {
      0% { transform: translate(250px, 100px) scale(1); }
      50% { transform: translate(250px, 85px) scale(1.1); }
      100% { transform: translate(250px, 100px) scale(1); }
    }
    
    @keyframes float-heart-2 {
      0% { transform: translate(210px, 80px) scale(1); }
      50% { transform: translate(205px, 70px) scale(1.05); }
      100% { transform: translate(210px, 80px) scale(1); }
    }
    
    @keyframes float-heart-3 {
      0% { transform: translate(290px, 120px) scale(1); }
      50% { transform: translate(295px, 105px) scale(1.1); }
      100% { transform: translate(290px, 120px) scale(1); }
    }
    
    #boy-bear {
      animation: boyFloat 4s ease-in-out infinite;
    }
    
    #girl-bear {
      animation: girlFloat 4s ease-in-out infinite;
    }
    
    #boy-blush, #girl-blush {
      animation: blush-pulse 3s ease-in-out infinite;
    }
    
    #heart {
      animation: heart-beat 1.5s ease-in-out infinite;
    }
    
    .floating-heart:nth-child(1) {
      animation: float-heart-1 5s ease-in-out infinite;
    }
    
    .floating-heart:nth-child(2) {
      animation: float-heart-2 4s ease-in-out infinite;
    }
    
    .floating-heart:nth-child(3) {
      animation: float-heart-3 6s ease-in-out infinite;
    }
  </style>
</svg>