<?xml version="1.0" encoding="UTF-8" standalone="no"?>
<svg xmlns="http://www.w3.org/2000/svg" xmlns:xlink="http://www.w3.org/1999/xlink" viewBox="0 0 500 400" width="500" height="400">
  <!-- Bears Container -->
  <g id="bears-container">
    <!-- Boy Bear -->
    <g id="boy-bear" transform="translate(170, 200)">
      <circle cx="0" cy="0" r="75" fill="white" stroke="black" stroke-width="3"/>
      
      <!-- Bear Face -->
      <circle cx="0" cy="-5" r="60" fill="white" stroke="none"/>
      
      <!-- Bear Eyes -->
      <g id="boy-eyes">
        <g id="boy-left-eye">
          <ellipse cx="-20" cy="-15" rx="7" ry="10" fill="black"/>
          <circle cx="-22" cy="-17" r="2" fill="white"/>
        </g>
        <g id="boy-right-eye">
          <ellipse cx="20" cy="-15" rx="7" ry="10" fill="black"/>
          <circle cx="18" cy="-17" r="2" fill="white"/>
        </g>
      </g>
      
      <!-- Bear Blushing Cheeks -->
      <g id="boy-blush" opacity="0.7">
        <circle cx="-35" cy="10" r="12" fill="#ff9999"/>
        <circle cx="35" cy="10" r="12" fill="#ff9999"/>
      </g>
      
      <!-- Bear Ears -->
      <g id="boy-ears">
        <circle cx="-45" cy="-55" r="20" fill="white" stroke="black" stroke-width="3"/>
        <circle cx="45" cy="-55" r="20" fill="white" stroke="black" stroke-width="3"/>
        <circle cx="-45" cy="-55" r="10" fill="#ffcccc" stroke="none"/>
        <circle cx="45" cy="-55" r="10" fill="#ffcccc" stroke="none"/>
      </g>
      
      <!-- Bear Mouth -->
      <g id="boy-mouth">
        <path d="M-15,20 Q0,30 15,20" stroke="black" stroke-width="3" fill="none"/>
      </g>
      
      <!-- Bear Arms -->
      <g id="boy-arms">
        <path d="M-30,40 Q-60,60 -40,80" stroke="black" stroke-width="3" fill="white"/>
        <path d="M30,40 Q60,60 40,80" stroke="black" stroke-width="3" fill="white"/>
      </g>
      
      <!-- Heart -->
      <g id="heart" transform="translate(0, 50)">
        <path d="M0,20 L-20,0 Q-40,-20 -20,-30 Q-10,-40 0,-30 Q10,-40 20,-30 Q40,-20 20,0 Z" fill="#ff5252" stroke="black" stroke-width="2"/>
      </g>
    </g>
    
    <!-- Girl Bear -->
    <g id="girl-bear" transform="translate(330, 200)">
      <circle cx="0" cy="0" r="70" fill="white" stroke="black" stroke-width="3"/>
      
      <!-- Bear Face -->
      <circle cx="0" cy="-5" r="55" fill="white" stroke="none"/>
      
      <!-- Bear Eyes -->
      <g id="girl-eyes">
        <g id="girl-left-eye">
          <ellipse cx="-18" cy="-15" rx="6" ry="9" fill="black"/>
          <circle cx="-20" cy="-17" r="2" fill="white"/>
        </g>
        <g id="girl-right-eye">
          <ellipse cx="18" cy="-15" rx="6" ry="9" fill="black"/>
          <circle cx="16" cy="-17" r="2" fill="white"/>
        </g>
      </g>
      
      <!-- Bear Blushing Cheeks -->
      <g id="girl-blush" opacity="0.8">
        <circle cx="-30" cy="10" r="12" fill="#ff9999"/>
        <circle cx="30" cy="10" r="12" fill="#ff9999"/>
      </g>
      
      <!-- Bear Ears -->
      <g id="girl-ears">
        <circle cx="-40" cy="-55" r="18" fill="white" stroke="black" stroke-width="3"/>
        <circle cx="40" cy="-55" r="18" fill="white" stroke="black" stroke-width="3"/>
        <circle cx="-40" cy="-55" r="9" fill="#ffcccc" stroke="none"/>
        <circle cx="40" cy="-55" r="9" fill="#ffcccc" stroke="none"/>
      </g>
      
      <!-- Bear Mouth -->
      <g id="girl-mouth">
        <path d="M-12,20 Q0,30 12,20" stroke="black" stroke-width="3" fill="none"/>
      </g>
      
      <!-- Bear Arms -->
      <g id="girl-arms">
        <path d="M-28,40 Q-50,60 -35,80" stroke="black" stroke-width="3" fill="white"/>
      </g>
      
      <!-- Flower -->
      <g id="flower" transform="translate(45, 50)">
        <circle cx="0" cy="0" r="10" fill="#ff7c7c"/>
        <circle cx="0" cy="-10" r="8" fill="#ffacac"/>
        <circle cx="10" cy="0" r="8" fill="#ffacac"/>
        <circle cx="0" cy="10" r="8" fill="#ffacac"/>
        <circle cx="-10" cy="0" r="8" fill="#ffacac"/>
        <circle cx="0" cy="0" r="5" fill="#ffdd00"/>
      </g>
    </g>
    
    <!-- Floating Hearts -->
    <g id="floating-hearts">
      <g class="floating-heart" transform="translate(250, 100)">
        <path d="M0,10 L-10,0 Q-20,-10 -10,-15 Q-5,-20 0,-15 Q5,-20 10,-15 Q20,-10 10,0 Z" fill="#ff5252" opacity="0.8"/>
      </g>
      <g class="floating-heart" transform="translate(210, 80)">
        <path d="M0,7 L-7,0 Q-14,-7 -7,-11 Q-4,-14 0,-11 Q4,-14 7,-11 Q14,-7 7,0 Z" fill="#ff5252" opacity="0.6"/>
      </g>
      <g class="floating-heart" transform="translate(290, 90)">
        <path d="M0,8 L-8,0 Q-16,-8 -8,-12 Q-4,-16 0,-12 Q4,-16 8,-12 Q16,-8 8,0 Z" fill="#ff5252" opacity="0.7"/>
      </g>
      <g class="floating-heart" transform="translate(240, 60)">
        <path d="M0,6 L-6,0 Q-12,-6 -6,-9 Q-3,-12 0,-9 Q3,-12 6,-9 Q12,-6 6,0 Z" fill="#ff5252" opacity="0.5"/>
      </g>
      <g class="floating-heart" transform="translate(270, 70)">
        <path d="M0,9 L-9,0 Q-18,-9 -9,-14 Q-5,-18 0,-14 Q5,-18 9,-14 Q18,-9 9,0 Z" fill="#ff5252" opacity="0.7"/>
      </g>
    </g>
  </g>
  
  <!-- Animation -->
  <style>
    @keyframes boyFloat {
      0% { transform: translate(170px, 200px) rotate(0deg); }
      25% { transform: translate(165px, 195px) rotate(-2deg); }
      50% { transform: translate(170px, 190px) rotate(0deg); }
      75% { transform: translate(175px, 195px) rotate(2deg); }
      100% { transform: translate(170px, 200px) rotate(0deg); }
    }

    @keyframes girlFloat {
      0% { transform: translate(330px, 200px) rotate(0deg); }
      25% { transform: translate(335px, 195px) rotate(2deg); }
      50% { transform: translate(330px, 190px) rotate(0deg); }
      75% { transform: translate(325px, 195px) rotate(-2deg); }
      100% { transform: translate(330px, 200px) rotate(0deg); }
    }
    
    @keyframes blush-pulse {
      0% { opacity: 0.5; }
      50% { opacity: 0.9; }
      100% { opacity: 0.5; }
    }
    
    @keyframes heart-beat {
      0% { transform: translate(0, 50px) scale(1); }
      25% { transform: translate(0, 50px) scale(1.15); }
      50% { transform: translate(0, 50px) scale(1); }
      75% { transform: translate(0, 50px) scale(1.15); }
      100% { transform: translate(0, 50px) scale(1); }
    }
    
    @keyframes flower-spin {
      0% { transform: translate(45px, 50px) rotate(0deg); }
      100% { transform: translate(45px, 50px) rotate(360deg); }
    }
    
    @keyframes float-heart-1 {
      0% { transform: translate(250px, 100px) scale(1); }
      50% { transform: translate(250px, 80px) scale(1.1); }
      100% { transform: translate(250px, 100px) scale(1); }
    }
    
    @keyframes float-heart-2 {
      0% { transform: translate(210px, 80px) scale(1); }
      50% { transform: translate(205px, 65px) scale(1.05); }
      100% { transform: translate(210px, 80px) scale(1); }
    }
    
    @keyframes float-heart-3 {
      0% { transform: translate(290px, 90px) scale(1); }
      50% { transform: translate(295px, 70px) scale(1.1); }
      100% { transform: translate(290px, 90px) scale(1); }
    }
    
    @keyframes float-heart-4 {
      0% { transform: translate(240px, 60px) scale(1); }
      50% { transform: translate(235px, 45px) scale(1.05); }
      100% { transform: translate(240px, 60px) scale(1); }
    }
    
    @keyframes float-heart-5 {
      0% { transform: translate(270px, 70px) scale(1); }
      50% { transform: translate(275px, 55px) scale(1.1); }
      100% { transform: translate(270px, 70px) scale(1); }
    }
    
    #boy-bear {
      animation: boyFloat 4s ease-in-out infinite;
    }
    
    #girl-bear {
      animation: girlFloat 4s ease-in-out infinite;
    }
    
    #boy-blush, #girl-blush {
      animation: blush-pulse 3s ease-in-out infinite;
    }
    
    #heart {
      animation: heart-beat 1.5s ease-in-out infinite;
      transform-origin: center;
    }
    
    #flower {
      animation: flower-spin 15s linear infinite;
      transform-origin: center;
    }
    
    .floating-heart:nth-child(1) {
      animation: float-heart-1 5s ease-in-out infinite;
    }
    
    .floating-heart:nth-child(2) {
      animation: float-heart-2 4s ease-in-out infinite;
    }
    
    .floating-heart:nth-child(3) {
      animation: float-heart-3 6s ease-in-out infinite;
    }
    
    .floating-heart:nth-child(4) {
      animation: float-heart-4 4.5s ease-in-out infinite;
    }
    
    .floating-heart:nth-child(5) {
      animation: float-heart-5 5.5s ease-in-out infinite;
    }
  </style>
</svg>