<?xml version="1.0" encoding="UTF-8" standalone="no"?>
<svg width="300" height="200" xmlns="http://www.w3.org/2000/svg">
   <g>
       <!-- First Bear -->
       <ellipse fill="#a67c52" cx="120" cy="100" rx="40" ry="45"/>
       <!-- Head -->
       <ellipse fill="#a67c52" cx="100" cy="60" rx="30" ry="25"/>
       <!-- Ears -->
       <ellipse fill="#7d5a3c" cx="80" cy="45" rx="10" ry="10"/>
       <ellipse fill="#7d5a3c" cx="120" cy="45" rx="10" ry="10"/>
       <!-- Inner Ears -->
       <ellipse fill="#e6c5a9" cx="82" cy="45" rx="5" ry="5"/>
       <ellipse fill="#e6c5a9" cx="118" cy="45" rx="5" ry="5"/>
       <!-- Face -->
       <ellipse fill="#e6c5a9" cx="100" cy="65" rx="20" ry="18"/>
       <!-- Eyes -->
       <ellipse fill="#000" cx="90" cy="60" rx="3" ry="3"/>
       <ellipse fill="#000" cx="110" cy="60" rx="3" ry="3"/>
       <!-- Nose -->
       <ellipse fill="#4f3222" cx="100" cy="70" rx="6" ry="4"/>
       <!-- Mouth -->
       <path fill="none" stroke="#4f3222" stroke-width="2" d="M95,78 Q100,82 105,78"/>
       <!-- Arms (hugging) -->
       <ellipse fill="#a67c52" cx="150" cy="90" rx="10" ry="30" transform="rotate(30 150 90)"/>
       <ellipse fill="#a67c52" cx="90" cy="110" rx="10" ry="20" transform="rotate(-20 90 110)"/>
       <!-- Legs -->
       <ellipse fill="#a67c52" cx="100" cy="140" rx="10" ry="18"/>
       <ellipse fill="#a67c52" cx="140" cy="140" rx="10" ry="18"/>
       
       <!-- Second Bear -->
       <ellipse fill="#ba8f6d" cx="180" cy="105" rx="35" ry="40"/>
       <!-- Head -->
       <ellipse fill="#ba8f6d" cx="200" cy="65" rx="25" ry="22"/>
       <!-- Ears -->
       <ellipse fill="#8e6b4e" cx="185" cy="50" rx="8" ry="8"/>
       <ellipse fill="#8e6b4e" cx="215" cy="50" rx="8" ry="8"/>
       <!-- Inner Ears -->
       <ellipse fill="#e6c5a9" cx="187" cy="50" rx="4" ry="4"/>
       <ellipse fill="#e6c5a9" cx="213" cy="50" rx="4" ry="4"/>
       <!-- Face -->
       <ellipse fill="#e6c5a9" cx="200" cy="70" rx="17" ry="15"/>
       <!-- Eyes -->
       <ellipse fill="#000" cx="192" cy="65" rx="2.5" ry="2.5"/>
       <ellipse fill="#000" cx="208" cy="65" rx="2.5" ry="2.5"/>
       <!-- Nose -->
       <ellipse fill="#4f3222" cx="200" cy="73" rx="5" ry="3"/>
       <!-- Mouth -->
       <path fill="none" stroke="#4f3222" stroke-width="1.5" d="M196,80 Q200,83 204,80"/>
       <!-- Arms (hugging) -->
       <ellipse fill="#ba8f6d" cx="150" cy="90" rx="8" ry="25" transform="rotate(-30 150 90)"/>
       <ellipse fill="#ba8f6d" cx="210" cy="110" rx="8" ry="17" transform="rotate(20 210 110)"/>
       <!-- Legs -->
       <ellipse fill="#ba8f6d" cx="165" cy="140" rx="8" ry="15"/>
       <ellipse fill="#ba8f6d" cx="195" cy="140" rx="8" ry="15"/>
       
       <!-- Hearts above -->
       <path fill="#ff6b9d" d="M150,30 C150,20 145,15 140,15 C135,15 130,20 130,25 C130,30 135,35 150,45 C165,35 170,30 170,25 C170,20 165,15 160,15 C155,15 150,20 150,30 Z"/>
       <path fill="#ff6b9d" d="M180,40 C180,33 176,30 172,30 C168,30 165,33 165,36 C165,40 168,45 180,52 C192,45 195,40 195,36 C195,33 192,30 188,30 C184,30 180,33 180,40 Z"/>
       <path fill="#ff6b9d" d="M120,40 C120,33 116,30 112,30 C108,30 105,33 105,36 C105,40 108,45 120,52 C132,45 135,40 135,36 C135,33 132,30 128,30 C124,30 120,33 120,40 Z"/>
   </g>
</svg>